<svg width="50" height="50" viewBox="0 0 50 50" fill="none" xmlns="http://www.w3.org/2000/svg">
<ellipse cx="25.1474" cy="24.9614" rx="24.1883" ry="24.7659" fill="#FFF2DA"/>
<path d="M40.9998 27.1545C41.0126 26.2913 40.6592 25.7018 39.978 25.2838C39.7106 25.119 39.4313 24.9754 39.1426 24.8544C37.9547 24.3655 36.7046 24.1468 35.4393 24.0174C34.8619 23.9579 34.2829 23.9299 33.6749 23.8827V23.4891C33.6749 21.425 33.6655 19.361 33.6792 17.2969C33.6843 16.5229 33.3879 15.9177 32.7689 15.5119C32.3578 15.2422 31.9192 15.0196 31.4609 14.8481C30.0304 14.3128 28.5342 14.1178 27.0228 14.0382C24.8709 13.9254 22.7362 14.0434 20.6499 14.6504C19.8835 14.8726 19.1469 15.1603 18.5432 15.72C18.1788 16.0576 17.9616 16.4643 17.9795 16.9865C18.011 17.9162 18.0323 18.8467 18.0578 19.7764C18.0578 19.8788 18.0578 19.982 18.0578 20.093C17.9812 20.0878 17.9395 20.093 17.8994 20.0825C16.0901 19.7633 14.2295 20.1279 12.6617 21.1088C11.0939 22.0898 9.92504 23.6207 9.37138 25.4185C9.20107 25.9642 9.12189 26.538 9.00012 27.0994V28.5111C9.041 28.7402 9.08525 28.9693 9.12357 29.2002C9.69154 32.7397 12.8541 35.5516 16.3446 35.6338C18.1188 35.6968 19.8596 35.1273 21.2715 34.0219C21.3561 33.9498 21.4641 33.9132 21.5738 33.9196C22.8094 34.2003 24.062 34.3026 25.3205 34.349C25.3665 34.354 25.4107 34.3701 25.4494 34.3959C25.4882 34.4218 25.5205 34.4566 25.5436 34.4977C25.629 34.7461 25.7616 34.9746 25.9338 35.1698C26.106 35.365 26.3144 35.5231 26.5468 35.6347C27.1207 35.9268 27.7125 36.2206 28.329 36.3798C31.5035 37.1993 34.695 37.1914 37.8823 36.4463C38.6632 36.2626 39.4193 35.9863 40.0912 35.514C40.6872 35.0924 41.0049 34.5475 40.9955 33.7648C40.9717 31.5599 40.9674 29.3542 40.9998 27.1545ZM19.3496 18.7514C23.6865 20.2102 28.025 20.2067 32.4214 18.65C32.3933 19.2447 32.3908 19.8744 32.3167 20.4866C32.2963 20.6528 32.0876 20.8583 31.9182 20.9327C31.2906 21.2073 30.6613 21.516 30.0014 21.6664C27.2522 22.3014 24.4013 22.3137 21.6471 21.7023C21.4696 21.6521 21.3 21.5758 21.1438 21.4758C20.6175 21.1775 20.1015 20.8636 19.5693 20.5723C19.4194 20.4927 19.3436 20.4228 19.347 20.2443C19.3556 19.7275 19.3496 19.2088 19.3496 18.7514ZM19.4595 16.6436C19.9424 16.3552 20.4525 16.1179 20.982 15.9352C22.525 15.4419 24.125 15.3335 25.7719 15.3134C27.5056 15.3413 29.2691 15.4655 30.9611 16.0699C31.3766 16.2186 31.7632 16.4635 32.149 16.6882C32.3636 16.8133 32.3687 17.0197 32.149 17.1386C31.6747 17.3958 31.2029 17.687 30.6946 17.8462C28.6279 18.4917 26.4991 18.5826 24.3583 18.4584C23.0989 18.3876 21.8497 18.217 20.6542 17.7815C20.2368 17.6213 19.8372 17.416 19.462 17.1693C19.1742 16.9943 19.164 16.8098 19.4595 16.6436ZM16.5839 34.3298C13.0926 34.3035 10.2493 31.3509 10.2825 27.7816C10.3123 24.1704 13.1828 21.2344 16.6332 21.2851C20.2096 21.3367 23.0282 24.2588 22.9908 27.8787C22.9676 29.6047 22.2812 31.2513 21.0811 32.4597C19.881 33.6681 18.2645 34.3403 16.5839 34.3298ZM25.4398 33.0712L22.5812 32.8158L23.815 30.6293L25.4398 30.7115V33.0712ZM24.1625 29.3314C24.2008 28.5644 24.2374 27.8219 24.2774 27.0277L25.3716 27.0776V29.3944L24.1625 29.3314ZM25.9243 25.6336C25.8457 25.697 25.7529 25.7391 25.6544 25.7561C25.1656 25.7561 24.6768 25.7403 24.1897 25.7071C24.135 25.6965 24.0833 25.6736 24.0382 25.6401C23.9931 25.6065 23.9559 25.5631 23.9291 25.5129C23.5996 24.7818 23.2871 24.0427 22.9695 23.3054C26.1125 23.5836 29.2989 23.5774 32.3619 22.2559V23.9098C31.8808 23.9448 31.4056 23.9675 30.933 24.0156C29.5748 24.1529 28.2285 24.3655 26.9768 24.9602C26.6072 25.1377 26.2785 25.4097 25.9268 25.6336H25.9243ZM26.8559 26.531C27.4596 26.063 28.174 25.8636 28.8919 25.6861C30.2739 25.3433 31.6832 25.2427 33.2423 25.2331C34.9037 25.268 36.6978 25.38 38.4179 26.0018C38.7874 26.1415 39.1409 26.3221 39.4721 26.5406C39.7813 26.7391 39.7923 26.9167 39.4721 27.0828C38.8846 27.3889 38.28 27.7152 37.6481 27.87C34.4677 28.6422 31.2821 28.6449 28.1246 27.7204C27.675 27.5883 27.2535 27.3268 26.8473 27.0732C26.5723 26.8965 26.5885 26.74 26.8584 26.531H26.8559ZM39.6969 34.0324C39.6893 34.1732 39.5155 34.3621 39.3742 34.4268C38.7781 34.7006 38.188 35.0058 37.563 35.1711C35.5193 35.7134 33.4314 35.7763 31.3366 35.5935C30.1011 35.486 28.8808 35.2927 27.7227 34.8064C27.6554 34.7775 27.5899 34.7461 27.5217 34.719C26.9776 34.4924 26.6574 34.1391 26.7426 33.4744C26.7937 33.0756 26.752 32.6645 26.752 32.2884C31.0862 33.7324 35.3839 33.742 39.7123 32.201C39.7148 32.7835 39.7353 33.4097 39.6995 34.0324H39.6969ZM39.7225 30.1955C39.7182 30.4929 39.5377 30.6792 39.3044 30.827C38.6478 31.2424 37.9215 31.4707 37.1756 31.6185C34.1296 32.222 31.0956 32.2412 28.0957 31.329C27.6921 31.1914 27.3057 31.0056 26.9444 30.7754C26.8235 30.7037 26.7247 30.4911 26.7162 30.3381C26.683 29.7731 26.6915 29.2011 26.6864 28.6387C26.6864 28.6212 26.7026 28.6038 26.6907 28.6274C31.0479 30.1142 35.3763 30.1037 39.725 28.5775C39.7267 29.0918 39.7327 29.6428 39.725 30.1955H39.7225Z" fill="#FFBF13"/>
<path d="M18.9992 29.5368C19.0129 30.0001 18.8763 30.4565 18.6073 30.846C18.3383 31.2356 17.9496 31.5401 17.492 31.7196C17.226 31.8197 17.1427 31.9456 17.1746 32.1874C17.183 32.268 17.1804 32.3493 17.1666 32.4292C17.1161 32.782 16.8457 33.0088 16.4901 32.9997C16.1541 32.9923 15.8306 32.7513 15.8607 32.4284C15.9024 31.9779 15.6923 31.8065 15.288 31.6152C14.9213 31.4487 14.6087 31.1939 14.3824 30.877C14.1561 30.5602 14.0244 30.1927 14.0007 29.8125C13.9891 29.2718 14.2161 29.0035 14.5911 28.9778C15.0043 28.9489 15.2702 29.1865 15.3137 29.6254C15.3713 30.205 15.7889 30.6191 16.3775 30.6787C16.6385 30.7011 16.9 30.6417 17.1206 30.5097C17.3413 30.3777 17.5084 30.1807 17.5957 29.95C17.7828 29.4664 17.5957 28.9058 17.1099 28.6599C16.8883 28.5586 16.647 28.5002 16.4006 28.4884C14.8979 28.37 13.8765 27.2952 14.0122 25.909C14.1008 24.97 14.67 24.3241 15.5974 23.9664C15.7747 23.8977 15.8421 23.8281 15.8483 23.6459C15.8598 23.2526 16.1417 22.9967 16.5141 23C16.8864 23.0033 17.1551 23.2485 17.1657 23.6261C17.1719 23.8356 17.2544 23.9175 17.4485 23.9954C18.3635 24.3622 18.8671 25.0238 18.9841 25.9446C19.0417 26.3959 18.8228 26.7089 18.4211 26.7578C18 26.8091 17.7119 26.5516 17.6604 26.0788C17.5931 25.4528 17.0461 25.0023 16.4113 25.0487C16.1153 25.0654 15.837 25.186 15.6321 25.3862C15.4272 25.5864 15.3108 25.8515 15.3062 26.1285C15.3016 26.4054 15.4091 26.6737 15.6073 26.8798C15.8055 27.0858 16.0796 27.2144 16.3749 27.2397C16.6874 27.2591 16.9971 27.3071 17.2996 27.383C17.7865 27.534 18.2113 27.8221 18.5156 28.2078C18.8199 28.5935 18.9889 29.0578 18.9992 29.5368Z" fill="#FFBF13"/>
</svg>
