<svg width="49" height="50" viewBox="0 0 49 50" fill="none" xmlns="http://www.w3.org/2000/svg">
<ellipse cx="24.3343" cy="24.9614" rx="24.227" ry="24.7659" fill="#FDEAFD"/>
<path d="M24.5201 16.3541C19.9736 16.3313 16.2457 20.0217 16.2157 24.5722C16.1876 29.1096 19.9242 32.8429 24.4972 32.8473C29.0551 32.8473 32.7716 29.1569 32.7856 24.6134C32.7997 20.0699 29.0921 16.3769 24.5201 16.3541ZM24.4989 31.889C23.0505 31.8892 21.6346 31.462 20.4301 30.6615C19.2256 29.8611 18.2867 28.7232 17.7319 27.3918C17.1772 26.0603 17.0317 24.5952 17.3136 23.1814C17.5956 21.7677 18.2924 20.4688 19.316 19.4491C20.3396 18.4294 21.6441 17.7346 23.0645 17.4525C24.4849 17.1704 25.9574 17.3137 27.296 17.8642C28.6345 18.4148 29.779 19.3479 30.5848 20.5457C31.3905 21.7434 31.8213 23.1519 31.8227 24.5933C31.824 25.5511 31.6356 26.4998 31.2682 27.385C30.9007 28.2703 30.3614 29.0748 29.6812 29.7524C29.0009 30.4301 28.1931 30.9676 27.3038 31.3342C26.4146 31.7008 25.4615 31.8893 24.4989 31.889Z" fill="#F04DF0"/>
<path d="M34.7645 12.5165C33.879 13.2173 32.9905 13.9136 32.0991 14.6056C32.0066 14.6766 31.8746 14.7808 31.7866 14.7554C31.6105 14.7143 31.4054 14.6372 31.3042 14.5049C31.1537 14.3069 31.2435 14.0827 31.4354 13.9285C31.9055 13.5501 32.3808 13.1796 32.8535 12.8047C32.9133 12.7574 32.9714 12.7083 33.0762 12.6234C32.9862 12.6069 32.8954 12.5955 32.8042 12.5892C27.356 12.5892 21.9084 12.5892 16.4614 12.5892C15.6128 12.5892 15.0178 13.1673 14.9649 14.017C14.9526 14.2246 14.9694 14.434 14.9491 14.6398C14.9254 14.8929 14.7643 15.0331 14.509 15.0462C14.2537 15.0594 14.0592 14.9315 14.0292 14.6889C13.8664 13.3399 14.3708 12.1092 15.8681 11.7019C16.1249 11.6436 16.3883 11.6195 16.6515 11.6301C21.9788 11.6265 27.3055 11.6265 32.6316 11.6301H33.0207C33.0269 11.6055 33.0322 11.581 33.0383 11.5565C32.5049 11.1351 31.9679 10.7191 31.4415 10.2916C31.2039 10.0989 31.1775 9.83962 31.3386 9.62501C31.4996 9.41041 31.7787 9.38238 32.0428 9.56282C32.0604 9.57509 32.0789 9.58735 32.0956 9.60136C32.9841 10.298 33.8719 10.995 34.7592 11.6922C35.077 11.9393 35.0796 12.2634 34.7645 12.5165Z" fill="#F04DF0"/>
<path d="M32.4371 37.5808C27.0781 37.5691 21.7194 37.5676 16.361 37.5764H15.9807C15.9763 37.6009 15.9719 37.6263 15.9684 37.6508C16.4965 38.073 17.037 38.4882 17.5626 38.9183C17.7993 39.1128 17.8266 39.373 17.6567 39.5858C17.4868 39.7987 17.2254 39.8214 16.9807 39.6603C16.9534 39.6419 16.9279 39.6208 16.9024 39.6007C16.0139 38.9046 15.1263 38.2076 14.2396 37.5098C13.9245 37.2602 13.9262 36.9317 14.2396 36.6838C15.1198 35.9918 16.0001 35.3021 16.8804 34.6148C17.192 34.3713 17.4763 34.3739 17.6594 34.6148C17.8425 34.8557 17.7844 35.1106 17.4622 35.3672C16.9666 35.7632 16.4657 36.1556 15.9112 36.5936C16.0617 36.6067 16.1506 36.6216 16.2404 36.6216C21.654 36.6216 27.0675 36.6216 32.4811 36.6216C33.4212 36.6216 34.0171 36.0286 34.0373 35.0878C34.0373 34.9126 34.0303 34.7374 34.0497 34.5623C34.0517 34.507 34.0648 34.4527 34.0881 34.4026C34.1114 34.3524 34.1444 34.3073 34.1854 34.27C34.2263 34.2327 34.2743 34.2038 34.3266 34.1851C34.3789 34.1664 34.4343 34.1582 34.4898 34.1611C34.7539 34.1514 34.9423 34.2925 34.9731 34.5552C35.2072 36.5384 33.878 37.5834 32.4371 37.5808Z" fill="#F04DF0"/>
<path d="M27.5692 26.2532C27.5692 27.1371 27.1476 27.8142 26.3545 28.2057C25.9381 28.4116 25.4742 28.514 24.9681 28.6822C24.9681 28.8049 24.9778 28.9678 24.9681 29.1298C24.9469 29.4014 24.7744 29.5415 24.5174 29.5678C24.2603 29.5941 24.0658 29.3926 24.0359 29.1298C23.9743 28.5981 23.9734 28.6043 23.4408 28.4685C22.4919 28.2276 21.815 27.6801 21.5043 26.7324C21.374 26.3338 21.4831 26.0474 21.7939 25.9388C22.1046 25.8301 22.3669 25.9931 22.4981 26.3925C22.5683 26.6178 22.6884 26.8246 22.8496 26.9975C23.0108 27.1705 23.2089 27.3053 23.4294 27.392C23.791 27.5534 24.1815 27.6408 24.5778 27.6487C24.974 27.6567 25.3678 27.5852 25.7357 27.4384C26.2251 27.2474 26.5376 26.8971 26.5393 26.3505C26.5411 25.8039 26.2031 25.4955 25.7383 25.344C25.0341 25.1145 24.3017 24.9489 23.5887 24.7308C23.2614 24.6411 22.9456 24.5138 22.6477 24.3516C21.3872 23.6193 21.3273 21.9243 22.5439 21.1193C22.8801 20.8968 23.3062 20.8075 23.6935 20.6656C23.8048 20.6348 23.9184 20.6129 24.0332 20.5999C24.0332 20.4186 24.0262 20.2548 24.0332 20.0927C24.0482 19.8045 24.2208 19.6547 24.4963 19.6346C24.7427 19.6162 24.9408 19.8168 24.9689 20.0831C25.0226 20.5999 25.0235 20.5964 25.535 20.7383C26.3457 20.9625 26.9495 21.4206 27.218 22.2458C27.3228 22.5655 27.2022 22.8511 26.9284 22.9465C26.8617 22.9747 26.7897 22.9883 26.7173 22.9865C26.6448 22.9847 26.5737 22.9675 26.5085 22.9361C26.4433 22.9047 26.3856 22.8597 26.3393 22.8042C26.293 22.7488 26.2592 22.6841 26.2401 22.6146C25.9997 21.905 25.4804 21.5888 24.7709 21.5634C24.3671 21.546 23.9627 21.5781 23.5667 21.6589C23.0386 21.7745 22.7155 22.1906 22.7111 22.6478C22.7058 23.1226 22.9268 23.4125 23.5113 23.5869C24.256 23.8102 25.013 23.9915 25.7621 24.2C25.952 24.2537 26.1369 24.3235 26.3148 24.4085C27.093 24.7799 27.5727 25.372 27.5692 26.2532Z" fill="#F04DF0"/>
</svg>
