<svg width="49" height="50" viewBox="0 0 49 50" fill="none" xmlns="http://www.w3.org/2000/svg">
<ellipse cx="24.5915" cy="24.9614" rx="24.227" ry="24.7659" fill="#F3F3F3"/>
<path d="M37.7553 11.7681C37.4633 11.6214 37.1952 11.8322 37.1761 12.2121C37.1157 13.4153 36.285 14.3722 35.0876 14.5373C34.5393 14.6123 33.9793 14.5748 33.4241 14.5809C32.9052 14.5864 32.3856 14.5809 31.8167 14.5809C31.9922 14.0319 31.6111 13.7665 31.3027 13.4644C31.169 13.3334 31.0367 13.1997 30.9038 13.0674C30.5288 12.6943 30.1498 12.3226 29.7797 11.9475C29.6227 11.7899 29.4623 11.6528 29.219 11.7592C28.9914 11.8588 28.9579 12.0532 28.9688 12.2701C28.9722 12.3294 28.9688 12.3888 28.9688 12.4488V21.0933C28.9238 21.031 28.894 20.959 28.8818 20.8832C28.5329 19.0724 28.1915 17.2601 27.8324 15.4506C27.6823 14.6962 27.8159 14.583 26.9173 14.5639C26.9002 14.5039 26.879 14.4397 26.8646 14.375C26.7275 13.7529 26.5863 13.1309 26.4533 12.5081C26.4088 12.3035 26.3197 12.133 26.0955 12.0921C25.8714 12.0511 25.7336 12.1862 25.6199 12.3649C25.1956 13.0333 24.759 13.6942 24.3422 14.3674C24.238 14.5359 24.1236 14.5857 23.931 14.585C20.0656 14.5796 16.2005 14.5782 12.3357 14.5809C11.8435 14.5809 11.7297 14.6928 11.7297 15.1771V25.3883C11.7297 25.9128 11.8332 26.0172 12.3548 26.0172H26.4958C26.5726 26.3657 26.6638 26.6938 26.7138 27.028C26.7679 27.3922 26.9194 27.6664 27.2662 27.8219C27.3764 27.8813 27.4814 27.9497 27.5801 28.0265C27.1963 28.4678 27.1963 28.4678 26.6404 28.4678C26.0674 28.4678 25.4944 28.4678 24.9214 28.4678C23.4745 28.4747 22.4079 29.5291 22.4025 30.9635C22.3977 32.2594 22.3915 33.5506 22.4025 34.8438C22.4134 35.9296 22.9296 36.7093 23.931 37.1417C24.5389 37.405 25.1647 37.6232 25.7857 37.8613H26.4526C26.5897 37.821 26.7268 37.7849 26.8639 37.7399C27.3593 37.5788 27.7902 37.2648 28.0942 36.8436C28.3981 36.4223 28.5592 35.9155 28.5541 35.397C28.5596 33.7723 28.5596 32.1476 28.5541 30.5229C28.5486 30.444 28.5611 30.3648 28.5907 30.2913C28.6202 30.2179 28.6661 30.152 28.7248 30.0987C29.0024 29.8354 29.2642 29.553 29.5473 29.2679C29.9373 29.5162 30.315 29.7453 30.6762 29.997C30.7509 30.0489 30.7817 30.1825 30.8044 30.2849C31.1526 31.8441 31.4978 33.4035 31.8401 34.9632C32.241 36.7877 34.1856 37.555 35.7271 36.4903C36.1061 36.2284 36.4879 35.9685 36.8484 35.6834C37.6353 35.0614 37.9513 34.2409 37.7546 33.2635C37.4941 31.9675 37.2062 30.6716 36.9067 29.3757C36.588 27.9897 35.3467 27.2033 33.9477 27.4863C33.3535 27.6071 32.7558 27.7169 32.1745 27.8826C31.7839 27.9945 31.5001 27.8922 31.2293 27.6227C31.2531 27.5888 31.2807 27.5577 31.3116 27.53C31.7702 27.2074 31.8599 26.7674 31.8551 26.2238C31.8257 24.0801 31.8435 21.9364 31.8435 19.7933V19.5136L31.8853 19.5061C31.9737 19.9597 32.0635 20.4133 32.1513 20.8669C32.4569 22.4434 32.7629 24.0198 33.069 25.5963C33.1307 25.9114 33.2548 26.0199 33.5776 26.011C34.191 25.9933 34.8189 26.0363 35.4152 25.9217C36.7566 25.6639 37.7128 24.6182 37.9547 23.2691C37.9663 23.2294 37.9814 23.1908 37.9999 23.1538V11.9782C37.9197 11.9072 37.8498 11.8152 37.7553 11.7681ZM29.7906 21.8913V13.1302C29.9668 13.3014 30.1101 13.4351 30.2478 13.5742C30.5049 13.8341 30.8558 14.0571 30.9874 14.3702C31.119 14.6832 31.0216 15.0727 31.0216 15.4294C31.0216 19.0178 31.0169 22.6055 31.0299 26.1938C31.0299 26.5349 30.9613 26.8015 30.683 27.0048C30.6142 27.0616 30.549 27.1227 30.4877 27.1876C30.2808 27.067 30.0806 26.9354 29.888 26.7934C29.8194 26.7402 29.7948 26.6058 29.7941 26.5083C29.79 24.9695 29.792 23.4301 29.792 21.8913H29.7906ZM25.8358 13.551L26.066 14.5687H25.1825L25.8358 13.551ZM12.5632 25.1898V15.3994H12.849C17.4642 15.3994 22.0806 15.3981 26.698 15.3953C26.9036 15.3953 27.001 15.4287 27.0462 15.6681C27.6405 18.7982 28.2505 21.9254 28.8557 25.0541C28.8615 25.0993 28.8644 25.1449 28.8646 25.1905L12.5632 25.1898ZM27.7487 31.1238C27.6987 31.7233 27.7378 32.3311 27.7378 32.9347C27.7378 33.7429 27.7412 34.5512 27.7378 35.3594C27.7323 36.6069 26.5726 37.3715 25.417 36.8941C25.0057 36.7249 24.5945 36.5531 24.1949 36.3682C23.578 36.0777 23.2352 35.5818 23.2277 34.897C23.2154 33.5704 23.2188 32.2431 23.2277 30.9158C23.2258 30.7024 23.2664 30.4907 23.3472 30.2931C23.4281 30.0954 23.5474 29.9156 23.6985 29.7642C23.8496 29.6127 24.0293 29.4926 24.2273 29.4107C24.4253 29.3287 24.6377 29.2867 24.8522 29.287C25.5444 29.2784 26.237 29.28 26.9297 29.2918C27.0391 29.307 27.1392 29.3613 27.2114 29.4446C27.6432 29.922 27.8043 30.4752 27.7481 31.1252L27.7487 31.1238ZM28.5384 29.1363C28.441 29.242 28.3499 29.3538 28.256 29.463L28.1874 29.4425C28.1545 29.2167 27.7296 29.0926 27.9818 28.8205C28.3574 28.4153 28.1723 28.3833 28.8351 28.8341C28.7364 28.9385 28.635 29.0346 28.5397 29.1376L28.5384 29.1363ZM31.0409 28.8423C30.9885 28.9462 30.9427 29.0533 30.9038 29.1629L29.5987 28.3328C28.9955 27.9488 28.3944 27.5607 27.7858 27.1855C27.7118 27.1465 27.6484 27.0903 27.6007 27.0219C27.553 26.9534 27.5225 26.8746 27.5116 26.792C27.4739 26.5417 27.4074 26.2954 27.3498 26.0329H28.6049C28.6631 26.2982 28.6974 26.5696 28.7872 26.8213C28.8443 26.9929 28.9508 27.144 29.0936 27.2558C29.6912 27.665 30.3033 28.0504 30.9223 28.4249C31.1156 28.5422 31.1519 28.6534 31.0422 28.8437L31.0409 28.8423ZM31.6749 29.4732C31.7736 28.9064 32.1135 28.6486 32.69 28.5865C33.1698 28.5374 33.64 28.3819 34.115 28.283C35.041 28.0845 35.8888 28.6104 36.0972 29.5257C36.3913 30.8169 36.6723 32.1108 36.9554 33.4046C36.9734 33.5082 36.9846 33.6127 36.9889 33.7177C36.9793 34.2865 36.7689 34.7176 36.3495 35.0348C35.9691 35.3226 35.5818 35.6036 35.1842 35.8676C34.2048 36.5169 32.9258 36.0163 32.6646 34.8752C32.2959 33.2614 31.9399 31.6447 31.5967 30.025C31.5611 29.8579 31.6447 29.6601 31.6762 29.4746L31.6749 29.4732ZM37.1774 22.675C37.1774 23.8639 36.4632 24.8406 35.3405 25.1046C34.8916 25.2096 34.409 25.1782 33.9409 25.1912C33.8922 25.1912 33.8072 25.082 33.7935 25.0125C33.5618 23.8461 33.3397 22.6778 33.1136 21.5101C32.7283 19.5248 32.3429 17.5397 31.9573 15.5549C31.9502 15.5029 31.9458 15.4505 31.9443 15.3981H32.1978C32.9162 15.3981 33.6372 15.3776 34.3521 15.4028C35.4337 15.4403 36.3741 15.1389 37.1781 14.2945V14.5864C37.179 17.2837 37.1793 19.9804 37.1788 22.6764L37.1774 22.675Z" fill="#1F1F1F"/>
<path d="M18.2973 16.2158C17.4859 16.2161 16.6929 16.4556 16.0183 16.9042C15.3437 17.3528 14.8178 17.9903 14.5071 18.7361C14.1965 19.482 14.1149 20.3027 14.2728 21.0947C14.4306 21.8866 14.8208 22.6142 15.394 23.1856C15.9673 23.757 16.6978 24.1465 17.4934 24.3049C18.289 24.4633 19.1139 24.3835 19.8639 24.0756C20.6139 23.7677 21.2554 23.2455 21.7074 22.5749C22.1593 21.9044 22.4013 21.1156 22.403 20.3082C22.403 19.224 21.9706 18.1841 21.2009 17.4169C20.4311 16.6496 19.3868 16.2176 18.2973 16.2158V16.2158ZM18.2781 23.5678C17.6294 23.5638 16.9965 23.3687 16.4592 23.0071C15.9218 22.6455 15.5041 22.1337 15.2588 21.5361C15.0134 20.9386 14.9514 20.2822 15.0805 19.6496C15.2096 19.017 15.5242 18.4367 15.9844 17.9818C16.4446 17.5268 17.0298 17.2178 17.6663 17.0935C18.3029 16.9692 18.9621 17.0353 19.561 17.2834C20.1598 17.5315 20.6714 17.9506 21.0311 18.4877C21.3909 19.0248 21.5828 19.6559 21.5825 20.3014C21.5815 20.7319 21.4952 21.158 21.3285 21.5553C21.1619 21.9526 20.9181 22.3132 20.6111 22.6166C20.3042 22.9201 19.9401 23.1602 19.5398 23.3235C19.1395 23.4867 18.7107 23.5697 18.2781 23.5678V23.5678Z" fill="#1F1F1F"/>
<path d="M26.9187 32.9933C26.9187 32.203 26.9187 31.4123 26.9187 30.6211C26.9187 30.25 26.7775 30.1054 26.4142 30.1034C25.9104 30.1034 25.4059 30.1034 24.9022 30.1034C24.3984 30.1034 24.0488 30.4444 24.0474 30.9512C24.044 32.2437 24.0474 33.5362 24.0474 34.8281C24.0474 35.2325 24.2366 35.5033 24.6054 35.6602C24.9741 35.8171 25.3258 35.9692 25.687 36.1206C26.3655 36.405 26.9207 36.0428 26.9207 35.3144C26.9201 34.5396 26.9187 33.7675 26.9187 32.9933ZM26.09 35.401L24.8713 34.8901V30.9342H26.09V35.401Z" fill="#1F1F1F"/>
<path d="M36.1488 33.5512C35.8643 32.2655 35.5846 30.9791 35.2899 29.6955C35.183 29.233 34.7985 28.9936 34.3187 29.0816C33.7909 29.1825 33.2672 29.304 32.7422 29.4274C32.468 29.4956 32.3659 29.6573 32.4105 29.9403C32.4338 30.0911 32.4749 30.2391 32.5085 30.3884C32.8187 31.798 33.1297 33.2077 33.4413 34.6173C33.5969 35.3136 34.2213 35.5476 34.8122 35.1336C35.1467 34.8976 35.48 34.6598 35.8122 34.4201C35.9269 34.3429 36.0198 34.2377 36.0821 34.1146C36.1444 33.9915 36.1739 33.8546 36.1679 33.7169C36.1649 33.6613 36.1585 33.606 36.1488 33.5512ZM35.1892 33.8711C34.8855 34.0757 34.5922 34.2892 34.2638 34.5218C33.9376 33.0471 33.6182 31.6039 33.2953 30.1408L34.4914 29.8728C34.6168 30.4253 34.7389 30.96 34.8588 31.4948C35.0103 32.1768 35.1556 32.8534 35.3139 33.5307C35.3502 33.6849 35.3262 33.7804 35.1892 33.8711Z" fill="#1F1F1F"/>
<path d="M19.891 18.468L17.4276 22.5536L16.7236 22.1341L19.1863 18.0492L19.891 18.468Z" fill="#1F1F1F"/>
<path d="M17.464 19.0861H16.6758V19.8711H17.464V19.0861Z" fill="#1F1F1F"/>
<path d="M19.9255 20.7263H19.1304V21.5127H19.9255V20.7263Z" fill="#1F1F1F"/>
</svg>
