<svg width="49" height="52" viewBox="0 0 49 52" fill="none" xmlns="http://www.w3.org/2000/svg">
<ellipse cx="24.4264" cy="26.0355" rx="24.227" ry="25.6675" fill="#FDEEEA"/>
<path d="M31.329 11.0748C30.7136 10.9411 30.1007 10.7969 29.487 10.658H29.1254C28.915 10.8933 28.7134 11.1365 28.4908 11.3606C28.4195 11.4326 28.2856 11.5091 28.1987 11.4908C26.8991 11.2225 25.6031 10.9385 24.3061 10.658H23.5828C23.0769 10.7908 22.5884 10.9593 22.1868 11.3171C21.8118 11.65 21.4334 11.9792 21.0515 12.3046C20.8603 12.4679 20.7542 12.6633 20.8229 12.9125C20.8915 13.1618 21.0889 13.266 21.334 13.3155C22.0208 13.4553 22.7084 13.596 23.3899 13.7601C23.5595 13.8037 23.7134 13.8939 23.8341 14.0207C24.3026 14.5296 24.7407 15.0629 25.2136 15.5718C25.3561 15.7205 25.5364 15.8277 25.7352 15.8818C26.3437 16.0355 26.9696 16.1467 27.5859 16.2839C27.8206 16.3369 28.0266 16.3143 28.1944 16.1285C28.3622 15.9426 28.3561 15.7307 28.2657 15.5101C28.1648 15.2643 28.0701 15.016 27.9684 14.7589C28.009 14.7472 28.0506 14.7393 28.0927 14.7354C29.1176 14.7971 29.9181 14.3881 30.5406 13.5856C30.9204 13.094 31.316 12.6138 31.7019 12.1274C32.1209 11.5959 31.9836 11.2164 31.329 11.0748ZM29.321 13.3103C28.9654 13.662 28.4891 13.7289 27.9996 13.6403C27.7336 13.5925 27.4711 13.517 27.2043 13.4822C26.7218 13.4197 26.4419 13.7749 26.6036 14.2343C26.6905 14.4879 26.8001 14.7354 26.9252 15.0507C26.4593 14.9239 26.0168 14.9595 25.6995 14.5392C25.3125 14.0395 24.8959 13.5633 24.4521 13.1131C24.2826 12.9505 24.0753 12.8326 23.8488 12.7701C23.429 12.6468 22.9935 12.5764 22.5171 12.4739C23.0726 11.8703 23.6741 11.6185 24.4452 11.7922C25.7256 12.0797 27.0139 12.3341 28.2961 12.6155C28.629 12.6884 28.8724 12.6155 29.088 12.3463C29.5652 11.7383 29.573 11.7453 30.318 11.9511C30.3615 11.9695 30.4034 11.9916 30.4432 12.0171C30.066 12.4583 29.7226 12.9134 29.321 13.3103Z" fill="#F66F47"/>
<path d="M24.0105 16.8154C18.9139 16.8632 14.9925 20.8903 14.923 25.7607C14.8978 27.5599 15.4087 29.3259 16.3908 30.8342C17.3728 32.3426 18.7816 33.5251 20.4381 34.2314C22.0946 34.9377 23.9239 35.136 25.6934 34.8009C27.4629 34.4659 29.0927 33.6127 30.3756 32.3499C31.6586 31.087 32.5366 29.4715 32.8982 27.7088C33.2598 25.9461 33.0886 24.1157 32.4062 22.4505C31.7239 20.7853 30.5613 19.3604 29.0663 18.357C27.5714 17.3536 25.8115 16.817 24.0105 16.8154ZM25.2665 18.6696C25.1222 18.4577 25.0301 18.2093 24.8649 17.8776L27.079 18.4508C26.9477 19.1039 26.84 19.7014 26.7 20.2911C26.6661 20.4361 26.5305 20.5586 26.4392 20.6862C26.128 21.104 25.8142 21.5191 25.4769 21.9672L24.6902 21.4401C24.8893 21.0406 25.0458 20.635 25.2787 20.2798C25.6421 19.7231 25.6351 19.2107 25.2665 18.6696ZM17.0214 21.9785C17.2909 21.5443 17.5943 21.1344 17.9003 20.7262C17.9386 20.6774 17.9864 20.6369 18.0407 20.6071C18.0951 20.5772 18.1549 20.5587 18.2167 20.5525C19.1729 20.5394 20.123 20.5447 21.0758 20.5455C21.1367 20.5518 21.1971 20.5622 21.2566 20.5768C20.8289 21.1126 20.4255 21.619 20.0196 22.1253C19.6319 22.6082 19.6275 22.6985 19.9674 23.2083C20.2508 23.633 20.5411 24.0533 20.815 24.4849C20.8764 24.5944 20.9675 24.6843 21.0777 24.7443C21.188 24.8044 21.3129 24.8322 21.4382 24.8245C21.8668 24.8167 22.2962 24.8245 22.7726 24.8245C22.6857 25.1719 22.6257 25.4845 22.5318 25.785C22.5144 25.8397 22.3727 25.884 22.2884 25.8858C21.6799 25.8936 21.0644 25.8858 20.4516 25.891C19.8388 25.8962 19.6162 26.1897 19.8101 26.7777C19.8848 27.0044 19.9605 27.2302 20.05 27.5003C19.6849 27.5003 19.3746 27.5098 19.0651 27.4942C18.9707 27.4815 18.8848 27.4329 18.8252 27.3587C18.4383 26.8593 18.0568 26.3565 17.6882 25.8432C17.6212 25.735 17.5863 25.61 17.5873 25.4828C17.576 24.9912 17.5691 24.4997 17.5873 24.0064C17.5986 23.6703 17.5065 23.3985 17.2396 23.1883C17.2091 23.1609 17.1801 23.1319 17.1527 23.1014C16.6476 22.6038 16.6372 22.5951 17.0214 21.9785ZM24.0365 33.9096L22.9256 33.8323C22.9256 33.4163 22.9056 33.0185 22.9317 32.6234C22.9578 32.2282 22.8508 31.9364 22.5492 31.6985C22.384 31.5691 22.2267 31.4301 22.0407 31.2747C22.4327 30.8847 22.7196 30.4783 23.1108 30.2507C23.3715 30.0979 23.7827 30.1969 24.1269 30.1951C24.153 30.1951 24.1852 30.2915 24.2043 30.3463C24.2591 30.4965 24.3138 30.6467 24.3599 30.8005C24.5007 31.2755 24.6207 31.7671 25.3013 31.8991C24.9858 32.1926 24.7485 32.4358 24.4877 32.6521C24.1069 32.9708 23.8914 33.3468 24.0365 33.9096ZM29.5643 31.6446C28.3342 32.8249 26.913 33.5197 25.0067 33.8262C25.1049 33.6473 25.1457 33.5197 25.2292 33.4328C25.6265 33.0212 26.0385 32.6234 26.4392 32.217C26.7869 31.8644 26.7391 31.4232 26.2775 31.2616C25.6525 31.0376 25.3709 30.612 25.2022 29.9997C24.9519 29.0922 24.918 29.0939 23.9731 29.1035C22.4127 29.1191 22.9213 28.9298 21.8155 29.9954C21.5417 30.2559 21.2705 30.5286 21.008 30.8048C20.7202 31.1062 20.7246 31.3702 21.008 31.6733C21.1027 31.7906 21.2106 31.8967 21.3296 31.9894C21.3954 32.0325 21.4574 32.0814 21.5148 32.1353C21.533 32.1518 21.5504 32.1692 21.5669 32.1866C21.5834 32.2039 21.6034 32.2265 21.6199 32.2473C21.6365 32.2682 21.6521 32.289 21.6669 32.3099C21.6736 32.3179 21.6794 32.3267 21.6842 32.3359L21.7095 32.375C21.7216 32.3959 21.7338 32.4176 21.7442 32.4401C21.7547 32.4627 21.766 32.4853 21.7755 32.5079C21.7851 32.5305 21.7938 32.5539 21.8016 32.5774L21.8173 32.6277C21.8562 32.7691 21.8747 32.9154 21.872 33.062C21.872 33.1427 21.8677 33.2244 21.8607 33.3077C21.8538 33.3946 21.8433 33.4736 21.8312 33.5579C21.6214 33.5106 21.4143 33.4526 21.2105 33.3842C21.1688 33.3711 21.1236 33.3573 21.0853 33.3416L20.9662 33.2982C20.9193 33.2808 20.8723 33.2626 20.8263 33.2435C20.795 33.2313 20.7637 33.2183 20.7324 33.2044C20.5317 33.1211 20.3353 33.0277 20.1439 32.9248L20.057 32.8796C19.7601 32.7155 19.4749 32.5313 19.2033 32.3281C19.179 32.3099 19.1538 32.2916 19.1303 32.2725C19.0834 32.2369 19.0373 32.2004 18.9912 32.1631L18.9234 32.1084C18.8765 32.0702 18.8295 32.0302 18.7835 31.9903C18.7374 31.9503 18.6722 31.893 18.6174 31.8426C18.5618 31.7923 18.5079 31.741 18.454 31.6889C18.2949 31.5352 18.1428 31.3754 17.9976 31.2078C17.9724 31.18 17.9481 31.1522 17.9246 31.1209C17.8855 31.0758 17.8481 31.0341 17.8107 30.9837C17.7438 30.8969 17.6778 30.817 17.6143 30.7319C17.5508 30.6468 17.4917 30.5651 17.4335 30.48C17.4039 30.4374 17.3752 30.3932 17.3465 30.3515C17.3179 30.3098 17.29 30.2646 17.2596 30.2212C17.2292 30.1778 17.204 30.1343 17.177 30.0892C17.1231 30.0023 17.0701 29.9103 17.0206 29.82C16.9954 29.7748 16.9702 29.7331 16.9458 29.6827C16.9293 29.6523 16.9128 29.622 16.8971 29.5907C16.7911 29.3857 16.6937 29.1756 16.6068 28.9619C16.5885 28.9176 16.5711 28.8751 16.5538 28.8299C16.5242 28.7561 16.4973 28.6823 16.4712 28.6084C16.4532 28.5581 16.4358 28.5077 16.419 28.4573C16.4043 28.4156 16.3912 28.3705 16.3782 28.3314C16.3651 28.2923 16.3599 28.2732 16.3512 28.2446C16.3512 28.2341 16.3443 28.2246 16.3417 28.2142C16.333 28.1855 16.3243 28.156 16.3164 28.1273C16.2791 28.0005 16.246 27.872 16.2173 27.7434C16.2104 27.7156 16.2043 27.687 16.1982 27.6566C16.1704 27.5315 16.1461 27.4065 16.1252 27.2805C16.1171 27.2371 16.1101 27.1937 16.1043 27.1503C16.0922 27.0712 16.0818 26.9931 16.0731 26.9149C16.0687 26.8819 16.0652 26.848 16.0617 26.815C16.0583 26.782 16.0557 26.7612 16.0539 26.7343C16.0522 26.7074 16.0478 26.6743 16.0452 26.6474C16.0339 26.5111 16.0261 26.3747 16.0235 26.2384C16.0235 26.168 16.0235 26.0968 16.0235 26.0256C16.0235 25.9883 16.0235 25.9509 16.0235 25.9136V25.8033C16.0235 25.7659 16.0235 25.7294 16.0235 25.6921C16.0235 25.6556 16.0235 25.6183 16.0296 25.5809L16.0374 25.4698C16.0374 25.4411 16.0374 25.4133 16.0444 25.3829L16.0496 25.3265V25.2978C16.0606 25.182 16.0745 25.0691 16.0913 24.9591C16.1 24.9027 16.1087 24.8453 16.1183 24.7854C16.1252 24.7481 16.1313 24.7099 16.1383 24.6725C16.153 24.597 16.1678 24.5214 16.1843 24.4458C16.2008 24.3703 16.2182 24.2939 16.2373 24.2183C16.2721 24.0776 16.3121 23.9378 16.3556 23.7971C16.406 23.936 16.4964 24.0733 16.5007 24.214C16.519 24.7246 16.4894 25.2379 16.5173 25.7477C16.529 25.9632 16.5983 26.1716 16.7181 26.3513C17.1623 26.9827 17.643 27.588 18.0967 28.2124C18.1773 28.3331 18.288 28.4308 18.4179 28.4956C18.5478 28.5605 18.6924 28.5904 18.8374 28.5824C19.4398 28.5737 20.0422 28.5824 20.6446 28.5824C21.1948 28.5772 21.4087 28.2758 21.2444 27.753C21.1662 27.5063 21.0853 27.2606 20.994 26.9792C21.5956 26.9792 22.165 26.9792 22.7326 26.9792C23.2081 26.9792 23.3567 26.868 23.4741 26.4103C23.6323 25.7894 23.7896 25.1684 23.9374 24.5448C24.0513 24.0646 23.8331 23.7875 23.3403 23.7815C22.8474 23.7754 22.3362 23.7919 21.8346 23.7702C21.6961 23.7552 21.5688 23.6874 21.4791 23.5808C21.2748 23.3203 21.1053 23.0363 20.9054 22.7358L22.005 21.3584C22.2432 21.0605 22.4788 20.7609 22.7213 20.4674C22.8865 20.2676 22.9751 20.0574 22.8526 19.8056C22.73 19.5537 22.5048 19.5042 22.2441 19.5051C21.3609 19.5051 20.4768 19.5051 19.5936 19.5051H19.3042C19.2894 19.4712 19.2755 19.4382 19.2616 19.4044C19.7631 19.1308 20.2508 18.8286 20.768 18.5906C21.61 18.2079 22.5158 17.9847 23.4393 17.9323C23.6062 17.921 23.6914 17.9592 23.7627 18.1129C23.9531 18.5211 24.1713 18.9171 24.3564 19.3288C24.4021 19.4419 24.4021 19.5683 24.3564 19.6814C24.1052 20.2164 23.8349 20.7401 23.5741 21.2707C23.3681 21.6884 23.4254 21.9003 23.8122 22.1618C24.2695 22.4704 24.7288 22.7758 25.1901 23.078C25.576 23.3307 25.8133 23.2925 26.0941 22.9243C26.5861 22.279 27.0938 21.6424 27.5458 20.9685C27.7153 20.7166 27.7623 20.3753 27.8396 20.0687C27.9266 19.7387 27.9761 19.4017 28.0569 18.9927C28.4846 19.3158 28.8828 19.6102 29.2696 19.9185C29.3122 19.9524 29.3139 20.0635 29.3026 20.1339C29.1662 20.985 29.0288 21.8352 28.8732 22.682C28.8544 22.7384 28.8239 22.7903 28.7838 22.8343C28.7437 22.8783 28.6948 22.9134 28.6402 22.9373C27.9752 23.2161 27.3015 23.4749 26.6322 23.7432C26.1706 23.9282 26.068 24.1289 26.1863 24.6117C26.3045 25.0946 26.4184 25.5861 26.5548 26.0673C26.5844 26.1564 26.5911 26.2515 26.5744 26.3439C26.5577 26.4363 26.5181 26.523 26.4592 26.5962C26.2158 26.9436 25.9863 27.291 25.7551 27.6444C25.5239 27.9979 25.5447 28.2124 25.8281 28.5025C26.1297 28.8108 26.4227 29.1313 26.7504 29.41C26.9094 29.5394 27.1034 29.6184 27.3076 29.6367C27.7875 29.6689 28.2708 29.6367 28.7524 29.6558C28.8101 29.6622 28.8656 29.6816 28.9147 29.7126C28.9638 29.7436 29.0052 29.7854 29.0357 29.8347C29.2548 30.3289 29.44 30.8378 29.6521 31.3346C29.7312 31.4727 29.6677 31.5474 29.566 31.6455L29.5643 31.6446ZM29.9163 29.0931C29.7303 28.6345 29.6399 28.572 29.1583 28.572C28.7237 28.572 28.2942 28.5529 27.8639 28.578C27.5571 28.5954 27.3207 28.5216 27.1303 28.2758C27.0339 28.1697 26.9283 28.0724 26.8147 27.9849C27.0755 27.5889 27.3172 27.2206 27.5658 26.8559C27.6407 26.7558 27.6909 26.6394 27.7124 26.5163C27.7338 26.3931 27.7259 26.2667 27.6892 26.1472C27.5502 25.6478 27.4363 25.1415 27.3068 24.6135C27.9605 24.3529 28.5933 24.075 29.2418 23.8457C29.659 23.699 29.8764 23.4671 29.9276 23.0111C30.0024 22.3363 30.1458 21.6693 30.2623 20.9832C32.3486 23.3377 32.7189 27.5941 30.4953 30.5182C30.2953 30.031 30.1076 29.5672 29.9181 29.0939L29.9163 29.0931Z" fill="#F66F47"/>
<path d="M25.7187 40.001C25.5109 39.5668 25.3162 39.1282 25.1102 38.6983C24.9349 38.3132 24.6697 37.9756 24.337 37.7139C24.0042 37.4522 23.6136 37.274 23.1977 37.1941C22.1894 36.9744 21.1862 36.7225 20.1683 36.5584C19.585 36.4646 19.2164 36.2753 19.1764 35.6335C19.1582 35.346 18.9443 35.1914 18.6549 35.1341C18.0351 35.0108 17.4213 34.8657 16.8024 34.7398C16.2096 34.6191 15.9192 34.9352 16.0722 35.5275C16.22 36.099 16.3582 36.6739 16.5295 37.2384C16.6327 37.6129 16.7749 37.9756 16.9537 38.3205C17.2701 38.8946 17.8021 39.2316 18.4315 39.4495C18.2324 39.6545 18.0559 39.843 17.8734 40.0253C17.6908 40.2077 17.5778 40.3797 17.6587 40.6385C17.7395 40.8973 17.9368 40.9859 18.1759 41.038C18.774 41.1622 19.3694 41.3072 19.9718 41.4027C20.2046 41.4381 20.4425 41.4108 20.6612 41.3237C21.2983 41.0571 21.9147 40.7418 22.5466 40.4622C22.6822 40.4064 22.8311 40.391 22.9752 40.4179C23.6637 40.5516 24.3478 40.7062 25.0337 40.8521C25.2884 40.906 25.5396 40.919 25.7187 40.6784C25.8821 40.4578 25.8291 40.2312 25.7187 40.001ZM22.9682 39.3297C22.7441 39.2984 22.5157 39.3241 22.3041 39.4044C21.7565 39.6267 21.2184 39.8742 20.6951 40.1461C20.3552 40.3198 20.0301 40.3918 19.6659 40.2624C19.5555 40.2234 19.4381 40.206 19.2121 40.1521C19.4624 39.9298 19.6693 39.7622 19.8562 39.5755C20.2396 39.1907 20.1118 38.7348 19.5876 38.6037C19.3546 38.5455 19.1165 38.5081 18.8826 38.4543C18.2402 38.3058 17.8186 37.9141 17.6369 37.2818C17.5135 36.8528 17.4127 36.4177 17.3031 35.9895C17.3308 35.976 17.36 35.9658 17.3901 35.9591C17.9907 35.973 18.3724 36.2145 18.4132 36.8745C18.4323 37.1802 18.6644 37.3209 18.9626 37.3826C20.2474 37.6492 21.5261 37.9445 22.8135 38.1955C23.6133 38.3509 24.0792 38.826 24.3374 39.6137C23.848 39.5086 23.4124 39.3922 22.9682 39.3297Z" fill="#F66F47"/>
<path d="M11.7041 22.2278C11.6172 22.5752 11.5303 22.913 11.439 23.2769L10.3959 23.0615C10.4924 22.6794 10.5836 22.3198 10.6827 21.9325L11.7041 22.2278Z" fill="#F66F47"/>
<path d="M14.7049 34.7285L13.9338 35.4641C13.6896 35.1871 13.4549 34.9222 13.1941 34.6252L14.0251 33.9539C14.2546 34.2144 14.4684 34.4593 14.7049 34.7285Z" fill="#F66F47"/>
<path d="M11.1618 25.3282V26.3634H10.1282V25.277L11.1618 25.3282Z" fill="#F66F47"/>
<path d="M12.9403 19.3983L12.4535 20.3049L11.4929 19.8403L12.0145 18.8563L12.9403 19.3983Z" fill="#F66F47"/>
<path d="M12.8621 32.2499L11.9363 32.7806L11.4191 31.7922L12.3848 31.338C12.5456 31.6446 12.6969 31.9347 12.8621 32.2499Z" fill="#F66F47"/>
<path d="M36.5247 31.92C36.3447 32.2561 36.1822 32.5627 36.0031 32.9049L35.0825 32.3681L35.5676 31.4597L36.5247 31.92Z" fill="#F66F47"/>
<path d="M17.2276 15.009L16.3731 15.5883L15.7411 14.7285L16.6625 14.1014L17.2276 15.009Z" fill="#F66F47"/>
<path d="M32.287 37.0438L31.3646 37.6709C31.1777 37.3721 30.9961 37.0812 30.797 36.7642L31.6524 36.1866L32.287 37.0438Z" fill="#F66F47"/>
<path d="M34.8254 17.1863L33.9943 17.8533L33.3146 17.0786C33.5754 16.8311 33.8257 16.5957 34.09 16.3447L34.8254 17.1863Z" fill="#F66F47"/>
<path d="M36.596 20.0218L35.6398 20.4751L35.1565 19.5641L36.0858 19.0334C36.264 19.3817 36.4248 19.6909 36.596 20.0218Z" fill="#F66F47"/>
<path d="M37.6374 23.1986L36.5943 23.4079C36.5073 23.0675 36.4334 22.7505 36.35 22.4118L37.3731 22.12C37.4635 22.4882 37.5479 22.8321 37.6374 23.1986Z" fill="#F66F47"/>
<path d="M11.6615 29.4005L10.634 29.6993L10.3732 28.6172L11.4085 28.4061C11.4919 28.7301 11.5737 29.0514 11.6615 29.4005Z" fill="#F66F47"/>
<path d="M32.4277 14.851C32.2121 15.1333 32.0088 15.3999 31.7801 15.7012L30.9352 15.1081L31.5132 14.2109L32.4277 14.851Z" fill="#F66F47"/>
<path d="M20.0292 13.6976L19.0651 14.065L18.6531 13.0827L19.6962 12.6919C19.8066 13.0306 19.9127 13.3485 20.0292 13.6976Z" fill="#F66F47"/>
<path d="M37.8747 25.4532V26.5414L36.849 26.4841V25.4532H37.8747Z" fill="#F66F47"/>
<path d="M37.5974 28.7552C37.5104 29.1182 37.4235 29.4595 37.3305 29.8321L36.3082 29.5342C36.3899 29.2103 36.4665 28.9054 36.5534 28.5624L37.5974 28.7552Z" fill="#F66F47"/>
<path d="M34.7148 34.7416C34.4601 35.0256 34.2228 35.2905 33.9734 35.5702L33.2371 34.7885L33.8977 34.0564L34.7148 34.7416Z" fill="#F66F47"/>
<path d="M29.3784 38.694L28.3352 39.0874C28.2196 38.7348 28.117 38.4239 28.004 38.08L28.9602 37.7135L29.3784 38.694Z" fill="#F66F47"/>
<path d="M14.757 17.0074L14.1259 17.7135L13.3062 17.03L14.0563 16.1963L14.757 17.0074Z" fill="#F66F47"/>
<path d="M16.2504 24.2079C16.0847 24.8692 16.0104 25.55 16.0296 26.2314C16.0099 25.55 16.0842 24.8691 16.2504 24.2079Z" fill="#F66F47"/>
</svg>
